<?xml version="1.0" encoding="UTF-8"?>
<svg id="Layer_2" data-name="Layer 2" xmlns="http://www.w3.org/2000/svg" viewBox="0 0 454.51 656.44">
  <defs>
    <style>
      .cls-1, .cls-2 {
        fill: #010101;
      }

      .cls-2, .cls-3, .cls-4 {
        stroke: #fff;
        stroke-linecap: round;
        stroke-linejoin: round;
      }

      .cls-2, .cls-4 {
        stroke-width: 7px;
      }

      .cls-3 {
        stroke-width: 5px;
      }

      .cls-3, .cls-4, .cls-5 {
        fill: #424043;
      }

      .cls-6 {
        fill: #fff;
      }

      .cls-7 {
        fill: #69bf71;
      }
    </style>
  </defs>
  <g id="Layer_1-2" data-name="Layer 1">
    <g>
      <polyline class="cls-7" points="5.53 573.36 400.83 45.01 449.18 45.01 367.7 595.71"/>
      <ellipse class="cls-6" cx="425.01" cy="28.61" rx="29.51" ry="28.61"/>
      <path class="cls-6" d="M369.61,587.33c0,32.02-82.74,57.98-184.81,57.98-102.07,0-184.81-25.96-184.81-57.98,0-32.02,82.74-57.98,184.81-57.98s184.81,25.96,184.81,57.98Z"/>
      <polygon class="cls-1" points="99.11 602.29 34.43 631.94 75.84 642.68 140.41 605.19 150.15 605.19 102.39 648.7 163.61 656.44 189.82 608.84 99.11 602.29"/>
      <path class="cls-1" d="M254.91,529.27l-67.85,30.5c-8.77,3.94-6.09,16.65,3.56,16.95l3.27.1,34.06-15.19,63.68-32.32,21.88.02-108.77,47.49h18.95c18.38,0,36.52-4.04,53.06-11.81l56.37-26.5c4.75-2.23,3.11-9.16-2.17-9.16l-76.05-.07Z"/>
      <polygon class="cls-1" points="258.91 555.42 231.69 555.42 193.47 576.8 204.74 576.81 258.91 555.42"/>
      <path class="cls-3" d="M173.87,530.53c2.14.66,4.83-.39,6.65-1.64,4.11-2.82,6.91-6.96,9-11.34,1.56-3.27,2.55-6.83,2.51-10.43-.02-2.11-.41-4.23-1.2-6.2-.39-.98-.88-1.92-1.47-2.81s-1.47-1.59-2.29-2.31c-1.34-1.17-2.95-2.09-4.72-2.48-1.76-.38-3.69-.2-5.25.68-1.76.99-2.7,2.68-2.93,4.6-.21,1.81,0,3.66-.39,5.46-.27,1.29-.84,2.5-1.3,3.73s-.82,2.55-.66,3.86c.16,1.31.9,2.51,1.95,3.34.52.41,1.12.74,1.77.94.74.23,1.39.05,2.13-.13.12.87-.23,1.74-.75,2.45s-1.22,1.28-1.9,1.86c-1.75,1.49-3.48,3.1-3.97,5.46-.21,1.01-.05,2.08.46,2.98.61,1.06,1.43,1.68,2.37,1.97Z"/>
      <path class="cls-3" d="M177.56,516.99c2.99-4.33,5.22-9.85,3.4-15.11"/>
      <path class="cls-3" d="M113.55,530.53c-2.14.66-4.83-.39-6.65-1.64-4.11-2.82-6.91-6.96-9-11.34-1.56-3.27-2.55-6.83-2.51-10.43.02-2.11.41-4.23,1.2-6.2.39-.98.88-1.92,1.47-2.81s1.47-1.59,2.29-2.31c1.34-1.17,2.95-2.09,4.72-2.48s3.69-.2,5.25.68c1.76.99,2.7,2.68,2.93,4.6.21,1.81,0,3.66.39,5.46.27,1.29.84,2.5,1.3,3.73s.82,2.55.66,3.86c-.16,1.31-.9,2.51-1.95,3.34-.52.41-1.12.74-1.77.94-.74.23-1.39.05-2.13-.13-.12.87.23,1.74.75,2.45s1.22,1.28,1.9,1.86c1.75,1.49,3.48,3.1,3.97,5.46.21,1.01.05,2.08-.46,2.98-.61,1.06-1.43,1.68-2.37,1.97Z"/>
      <path class="cls-3" d="M109.87,516.99c-2.99-4.33-5.22-9.85-3.4-15.11"/>
      <path class="cls-2" d="M195.14,492.08c-.13-.07-.28-.14-.43-.2-1.26.15-2.79.18-4.48.08l-11.59-2.24c-1.08-.36-2.08-.74-2.98-1.14,2.02-8,1.81-14.46,1.12-20.38-.83-7.14-2.77-14.42-6.23-20.79l1.32,40.51.21,6.57c.06.41.12.82.17,1.23,1.39,9.93,2.45,19.91,3.17,29.9.74,10.41,1.12,20.84,1.12,31.28v13.57l-25.49-.39c2.19-11.39,3.04-23.71,1.22-35.32-.72-4.56-1.82-9.06-3.31-13.42-1.25-3.65-2.55-8.19-5.24-10.94h-.01c-2.69,2.75-4,7.29-5.24,10.94-1.48,4.36-2.59,8.86-3.3,13.42-1.82,11.6-.97,23.93,1.22,35.32l-25.48.39v-13.57c0-20.47,1.43-40.91,4.28-61.19.06-.41.12-.81.17-1.22l.21-6.56,1.32-40.51c-3.46,6.37-5.39,13.65-6.23,20.79-.69,5.91-.9,12.38,1.12,20.37-.9.4-1.91.79-3.01,1.15l-11.55,2.23c-1.7.1-3.23.07-4.5-.08-.14.05-.28.12-.41.19-2.63-22.62.06-43.99,12.38-61.08,2.82-3.91,6.07-7.52,9.68-10.75.9-.8,7.88-6.21,9.11-5.22,5.65,4.58,12.88,7.3,20.25,7.59,7.36-.29,14.59-3.01,20.24-7.59,1.23-.99,8.21,4.42,9.12,5.22,3.62,3.23,6.86,6.84,9.68,10.75,12.32,17.09,15.01,38.47,12.38,61.08Z"/>
      <path class="cls-2" d="M97.22,491.97l-4.82.93c-.03-.27-.07-.55-.1-.82.13-.07.27-.14.41-.19,1.27.15,2.8.18,4.5.08Z"/>
      <path class="cls-2" d="M111.78,488.59c.04.18.09.36.14.54l-3.15.61c1.09-.36,2.11-.75,3.01-1.15Z"/>
      <path class="cls-2" d="M175.66,488.6c.89.4,1.9.78,2.98,1.14l-3.12-.6c.05-.18.1-.36.14-.54Z"/>
      <path class="cls-2" d="M195.14,492.08c-.03.27-.06.54-.09.81l-4.82-.93c1.69.1,3.22.07,4.48-.08.15.06.29.13.43.2Z"/>
      <ellipse class="cls-2" cx="143.71" cy="380.13" rx="28.48" ry="27.61"/>
      <g>
        <g>
          <path class="cls-4" d="M141.64,596.45c-.16.91-.4,1.82-.71,2.7-3,8.56-11.2,12.48-19.71,14.19-4.87.98-10.08.79-14.63-1.17-3.52-1.52-7.49-4.58-8.74-8.24-.61-1.79-.96-3.67-1.05-5.56,0,0,0-.01,0-.02-.05-.96-.02-1.92.06-2.88.14-1.6.46-3.17.97-4.69,1.72-5.19,5.85-9.95,10.59-12.53.02,0,1.93-1.05,1.93-1.05l23.13-.11,1.05.72c3.11,2.69,5.36,5.39,6.57,9.39.9,2.98,1.12,6.18.54,9.25Z"/>
          <g>
            <path class="cls-5" d="M115.86,620.02c-3.81,0-7.58-.81-10.88-2.34-3.21-1.48-5.62-3.4-7.18-5.71-2.79-4.17-2.64-9.21-2.5-13.65.02-.81.68-1.45,1.49-1.46h.01c.8,0,1.46.63,1.5,1.43.08,1.77.41,3.5.97,5.15,1.08,3.19,4.75,5.99,7.91,7.35,2.5,1.07,5.32,1.62,8.37,1.62,1.76,0,3.56-.18,5.37-.55,9.96-2,16.22-6.45,18.59-13.21.29-.81.51-1.64.65-2.46.13-.73.76-1.24,1.47-1.24.08,0,.16,0,.23.02.81.13,1.36.87,1.25,1.68-.05.38-.1.76-.15,1.14-.23,1.88-.47,3.82-1.22,5.82-1,2.67-2.45,5.11-4.31,7.23-3.35,3.83-8.2,6.61-14.41,8.25-2.35.62-4.76.93-7.17.93Z"/>
            <path class="cls-6" d="M141.64,596.45c-.3,2.25-.46,4.42-1.29,6.63-.92,2.47-2.29,4.78-4.03,6.77-3.53,4.04-8.53,6.43-13.67,7.79-2.21.58-4.5.88-6.79.88-3.53,0-7.04-.71-10.26-2.2-2.57-1.19-4.99-2.85-6.56-5.19-2.52-3.76-2.38-8.37-2.25-12.77.09,1.89.44,3.77,1.05,5.56,1.24,3.67,5.21,6.73,8.74,8.24,2.82,1.21,5.88,1.74,8.97,1.74,1.9,0,3.81-.2,5.67-.58,8.51-1.71,16.71-5.63,19.71-14.19.31-.88.55-1.78.71-2.7M141.63,593.45c-1.43,0-2.69,1.03-2.95,2.48-.13.74-.33,1.49-.59,2.22-2.19,6.24-8.06,10.36-17.47,12.25-1.71.34-3.42.52-5.07.52-2.85,0-5.47-.5-7.78-1.5-2.76-1.19-6.15-3.71-7.08-6.45-.52-1.52-.82-3.12-.9-4.75-.08-1.6-1.4-2.86-3-2.86,0,0-.02,0-.03,0-1.61.01-2.92,1.3-2.97,2.91-.14,4.67-.3,9.97,2.76,14.53,1.71,2.55,4.33,4.64,7.8,6.24,3.5,1.62,7.48,2.47,11.51,2.47,2.54,0,5.08-.33,7.55-.98,6.51-1.72,11.61-4.65,15.16-8.71,1.98-2.26,3.53-4.85,4.59-7.7.81-2.16,1.06-4.19,1.3-6.15.05-.37.09-.75.14-1.12.22-1.62-.9-3.11-2.51-3.36-.16-.02-.31-.04-.47-.04h0ZM141.64,599.45h0,0Z"/>
          </g>
          <path class="cls-4" d="M107.01,577.08h30.88v25.99c0,8.52-6.92,15.44-15.44,15.44h0c-8.52,0-15.44-6.92-15.44-15.44v-25.99h0Z"/>
          <path class="cls-4" d="M135.14,569.28c-.34-.15-.71-.25-1.08-.32-2.81.86-7,1.41-11.68,1.41s-8.88-.55-11.68-1.41c-.37.06-.74.17-1.08.32-1.95.82-3.16,3.06-2.6,4.94.76,2.54,4.21,3.08,6.69,3.53,2.85.51,5.78.7,8.68.7s5.83-.19,8.68-.7c2.48-.45,5.93-.99,6.69-3.53.56-1.88-.66-4.11-2.6-4.94Z"/>
        </g>
        <g>
          <path class="cls-4" d="M144.61,595.79c.16.91.4,1.82.71,2.7,3,8.56,11.2,12.48,19.71,14.19,4.87.98,10.08.79,14.63-1.17,3.52-1.52,7.49-4.58,8.74-8.24.61-1.79.96-3.67,1.05-5.56,0,0,0-.01,0-.02.05-.96.02-1.92-.06-2.88-.14-1.6-.46-3.17-.97-4.69-1.72-5.19-5.85-9.95-10.59-12.53-.02,0-1.93-1.05-1.93-1.05l-23.13-.11-1.05.72c-3.11,2.69-5.36,5.39-6.57,9.39-.9,2.98-1.12,6.18-.54,9.25Z"/>
          <g>
            <path class="cls-5" d="M170.39,619.36c-2.41,0-4.83-.31-7.17-.93-6.21-1.64-11.06-4.42-14.42-8.25-1.86-2.13-3.31-4.56-4.31-7.23-.75-2-.99-3.94-1.22-5.81-.05-.38-.09-.76-.15-1.14-.11-.81.45-1.56,1.25-1.68.08-.01.16-.02.23-.02.71,0,1.35.51,1.47,1.24.15.83.37,1.65.65,2.46,2.37,6.77,8.63,11.22,18.59,13.22,1.8.36,3.61.55,5.37.55,3.05,0,5.87-.54,8.37-1.62,3.16-1.36,6.83-4.15,7.91-7.35.56-1.65.89-3.39.98-5.15.04-.8.7-1.43,1.5-1.43h.01c.81,0,1.46.65,1.49,1.46.13,4.45.29,9.48-2.5,13.65-1.55,2.31-3.97,4.23-7.18,5.71-3.31,1.53-7.07,2.33-10.88,2.33Z"/>
            <path class="cls-6" d="M144.61,595.79c.16.91.4,1.82.71,2.7,3,8.56,11.2,12.48,19.71,14.19,1.86.37,3.76.58,5.67.58,3.08,0,6.15-.53,8.97-1.74,3.52-1.52,7.49-4.58,8.74-8.24.61-1.79.96-3.67,1.05-5.56.13,4.4.27,9.01-2.25,12.77-1.57,2.33-3.98,4-6.56,5.19-3.21,1.48-6.73,2.2-10.26,2.2-2.29,0-4.58-.3-6.79-.88-5.14-1.36-10.14-3.75-13.67-7.79-1.75-1.99-3.11-4.3-4.03-6.77-.83-2.21-.98-4.38-1.29-6.63M144.61,592.79c-.15,0-.31.01-.47.04-1.61.25-2.73,1.75-2.51,3.36.05.38.1.75.14,1.12.24,1.96.5,3.99,1.31,6.16,1.06,2.84,2.6,5.43,4.59,7.69,3.55,4.06,8.65,6.99,15.16,8.71,2.47.65,5.01.98,7.56.98,4.03,0,8.01-.86,11.51-2.47,3.46-1.6,6.08-3.69,7.79-6.24,3.06-4.57,2.9-9.86,2.76-14.53-.05-1.61-1.36-2.89-2.97-2.91,0,0-.02,0-.03,0-1.6,0-2.92,1.26-3,2.86-.08,1.63-.38,3.22-.9,4.74-.93,2.74-4.32,5.26-7.08,6.45-2.32.99-4.93,1.5-7.78,1.5-1.66,0-3.37-.17-5.07-.52-9.41-1.89-15.29-6.01-17.47-12.24-.26-.74-.46-1.49-.59-2.23-.26-1.45-1.52-2.48-2.95-2.48h0Z"/>
          </g>
          <path class="cls-4" d="M163.8,576.43h0c8.52,0,15.44,6.92,15.44,15.44v25.99h-30.88v-25.99c0-8.52,6.92-15.44,15.44-15.44Z" transform="translate(327.6 1194.29) rotate(180)"/>
          <path class="cls-4" d="M151.1,568.63c.34-.15.71-.25,1.08-.32,2.81.86,7,1.41,11.68,1.41s8.88-.55,11.68-1.41c.37.06.74.17,1.08.32,1.95.82,3.16,3.06,2.6,4.94-.76,2.54-4.21,3.08-6.69,3.53-2.85.51-5.78.7-8.68.7-2.9,0-5.83-.19-8.68-.7-2.48-.45-5.93-.99-6.69-3.53-.56-1.88.66-4.11,2.6-4.94Z"/>
        </g>
      </g>
      <path class="cls-4" d="M115.57,487.11l-.21,6.56c-.06.41-.12.81-.17,1.22-.75.39-1.54.71-2.24,1-2.46,1.02-5.06,1.75-7.68,2.29-2.62.53-5.3.88-7.98.91-2.34.02-5.56.13-6.78-2.22-.9-1.73-.28-4.15,1.3-5.31.16-.12.33-.22.5-.31.13-.07.27-.14.41-.19,1.27.15,2.8.18,4.5.08,1.93-.11,4.09-.39,6.33-.85,1.88-.38,3.64-.85,5.22-1.38,1.09-.36,2.11-.75,3.01-1.15.74-.33,1.42-.67,2.01-1.01.35,0,.7.03,1.05.11.25.06.5.14.74.25Z"/>
      <path class="cls-4" d="M196.92,496.86c-1.22,2.35-4.45,2.24-6.78,2.22-2.68-.03-5.36-.37-7.98-.91-2.62-.53-5.22-1.26-7.68-2.29-.69-.29-1.48-.61-2.22-.99-.06-.41-.12-.82-.17-1.23l-.21-6.57c.23-.11.47-.19.72-.24.34-.08.69-.12,1.05-.11.59.34,1.27.68,2.02,1.01.89.4,1.9.78,2.98,1.14,1.59.52,3.36,1,5.24,1.38,2.25.46,4.42.74,6.35.85,1.69.1,3.22.07,4.48-.08.15.06.29.13.43.2.17.09.33.19.49.31,1.58,1.16,2.21,3.58,1.3,5.31Z"/>
      <g>
        <ellipse class="cls-2" cx="289.45" cy="313.41" rx="28.48" ry="27.61"/>
        <path class="cls-4" d="M288.42,529.39c-.16.91-.4,1.82-.71,2.7-3,8.56-11.2,12.48-19.71,14.19-4.87.98-10.08.79-14.63-1.17-3.52-1.52-7.49-4.58-8.74-8.24-.61-1.79-.96-3.67-1.05-5.56,0,0,0-.01,0-.02-.05-.96-.02-1.92.06-2.88.14-1.6.46-3.17.97-4.69,1.72-5.19,5.85-9.95,10.59-12.53.02,0,1.93-1.05,1.93-1.05l23.13-.11,1.05.72c3.11,2.69,5.36,5.39,6.57,9.39.9,2.98,1.12,6.18.54,9.25Z"/>
        <g>
          <path class="cls-5" d="M262.65,552.96c-3.81,0-7.58-.81-10.89-2.34-3.21-1.48-5.62-3.4-7.18-5.71-2.79-4.17-2.64-9.21-2.5-13.65.02-.81.68-1.45,1.49-1.46h.01c.8,0,1.46.63,1.5,1.43.08,1.77.41,3.5.97,5.15,1.08,3.19,4.75,5.99,7.91,7.35,2.5,1.07,5.32,1.62,8.37,1.62,1.76,0,3.56-.18,5.37-.55,9.96-2,16.22-6.45,18.59-13.21.29-.81.51-1.64.65-2.46.13-.73.76-1.24,1.47-1.24.08,0,.16,0,.23.02.81.13,1.36.87,1.25,1.68-.05.38-.1.76-.15,1.14-.23,1.88-.47,3.82-1.22,5.82-1,2.67-2.45,5.11-4.31,7.23-3.35,3.83-8.2,6.61-14.41,8.25-2.35.62-4.76.93-7.17.93Z"/>
          <path class="cls-6" d="M288.42,529.39c-.3,2.25-.46,4.42-1.29,6.63-.92,2.47-2.29,4.78-4.03,6.77-3.53,4.04-8.53,6.43-13.67,7.79-2.21.58-4.5.88-6.79.88-3.53,0-7.04-.71-10.26-2.2-2.57-1.19-4.99-2.85-6.56-5.19-2.52-3.76-2.38-8.37-2.25-12.77.09,1.89.44,3.77,1.05,5.56,1.24,3.67,5.21,6.73,8.74,8.24,2.82,1.21,5.88,1.74,8.97,1.74,1.9,0,3.81-.2,5.67-.58,8.51-1.71,16.71-5.63,19.71-14.19.31-.88.55-1.78.71-2.7M288.42,526.39c-1.43,0-2.69,1.03-2.95,2.48-.13.74-.33,1.49-.59,2.22-2.19,6.24-8.06,10.36-17.47,12.25-1.71.34-3.42.52-5.07.52-2.85,0-5.47-.5-7.78-1.5-2.76-1.19-6.15-3.71-7.08-6.45-.52-1.52-.82-3.12-.9-4.75-.08-1.6-1.4-2.86-3-2.86,0,0-.02,0-.03,0-1.61.01-2.92,1.3-2.97,2.91-.14,4.67-.3,9.97,2.76,14.53,1.71,2.55,4.33,4.64,7.8,6.24,3.5,1.62,7.48,2.47,11.51,2.47,2.54,0,5.08-.33,7.55-.98,6.51-1.72,11.61-4.65,15.16-8.71,1.98-2.26,3.53-4.85,4.59-7.7.81-2.16,1.06-4.19,1.3-6.15.05-.37.09-.75.14-1.12.22-1.62-.9-3.11-2.51-3.36-.16-.02-.31-.04-.47-.04h0ZM288.42,532.39h0,0Z"/>
        </g>
        <path class="cls-6" d="M254.85,515.01l14.32,7.82s0,.01,0,.02l-2.49,2.72,7.87,7.42s0,.03-.01.02l-14.32-7.53s0-.01,0-.02l2.45-2.83-7.83-7.61s0-.03.01-.02Z"/>
        <path class="cls-2" d="M321.25,422.41c2.17-8.25,1.97-14.87,1.26-20.92-.83-7.14-2.77-14.42-6.23-20.79l1.53,47.07h0c2.97,20.68,4.45,41.53,4.45,62.41v13.57l-25.49-.39c2.19-11.39,3.04-23.71,1.22-35.32-.72-4.56-1.82-9.06-3.31-13.42-1.25-3.65-2.55-8.19-5.24-10.94h-.01c-2.69,2.75-4,7.29-5.24,10.94-1.48,4.36-2.59,8.86-3.3,13.42-1.82,11.6-.97,23.93,1.22,35.32l-25.48.39v-13.57c0-20.88,1.49-41.73,4.45-62.41h0s1.53-47.07,1.53-47.07c-3.46,6.37-5.39,13.65-6.23,20.79-.71,6.05-.91,12.67,1.26,20.92l-19.52,3.76c-2.79-22.91-.19-44.6,12.28-61.9,2.82-3.91,6.07-7.52,9.68-10.75.9-.8,7.88-6.21,9.11-5.22,5.65,4.58,12.88,7.3,20.25,7.59,7.36-.29,14.59-3.01,20.24-7.59,1.23-.99,8.21,4.42,9.12,5.22,3.62,3.23,6.86,6.84,9.68,10.75,12.47,17.3,15.07,38.98,12.29,61.9l-19.52-3.76Z"/>
        <path class="cls-4" d="M281.93,502.23c-.34-.15-.71-.25-1.08-.32-2.81.86-7,1.41-11.68,1.41s-8.88-.55-11.68-1.41c-.37.06-.74.17-1.08.32-1.95.82-3.16,3.06-2.6,4.94.76,2.54,4.21,3.08,6.69,3.53,2.85.51,5.78.7,8.68.7s5.83-.19,8.68-.7c2.48-.45,5.93-.99,6.69-3.53.56-1.88-.66-4.11-2.6-4.94Z"/>
        <path class="cls-4" d="M290.48,529.39c.16.91.4,1.82.71,2.7,3,8.56,11.2,12.48,19.71,14.19,4.87.98,10.08.79,14.63-1.17,3.52-1.52,7.49-4.58,8.74-8.24.61-1.79.96-3.67,1.05-5.56,0,0,0-.01,0-.02.05-.96.02-1.92-.06-2.88-.14-1.6-.46-3.17-.97-4.69-1.72-5.19-5.85-9.95-10.59-12.53-.02,0-1.93-1.05-1.93-1.05l-23.13-.11-1.05.72c-3.11,2.69-5.36,5.39-6.57,9.39-.9,2.98-1.12,6.18-.54,9.25Z"/>
        <g>
          <path class="cls-5" d="M316.26,552.96c-2.41,0-4.82-.31-7.17-.93-6.21-1.64-11.06-4.42-14.42-8.25-1.86-2.12-3.31-4.56-4.31-7.23-.75-2-.99-3.94-1.22-5.81-.05-.38-.09-.76-.15-1.14-.11-.81.45-1.56,1.26-1.68.08-.01.16-.02.23-.02.72,0,1.35.51,1.48,1.24.14.82.36,1.65.65,2.46,2.37,6.77,8.63,11.22,18.59,13.22,1.81.36,3.61.55,5.37.55,3.05,0,5.87-.54,8.38-1.62,3.16-1.36,6.82-4.15,7.91-7.34.56-1.65.89-3.38.98-5.15.04-.8.7-1.43,1.5-1.43h.01c.81,0,1.46.65,1.49,1.46.13,4.45.29,9.48-2.5,13.65-1.55,2.31-3.97,4.23-7.18,5.71-3.31,1.53-7.07,2.33-10.88,2.33Z"/>
          <path class="cls-6" d="M290.48,529.39c.16.91.4,1.82.71,2.7,3,8.56,11.2,12.48,19.71,14.19,1.86.37,3.76.58,5.67.58,3.08,0,6.15-.53,8.97-1.74,3.52-1.52,7.49-4.58,8.74-8.24.61-1.79.96-3.67,1.05-5.56.13,4.4.27,9.01-2.25,12.77-1.57,2.33-3.98,4-6.56,5.19-3.21,1.48-6.73,2.2-10.26,2.2-2.29,0-4.58-.3-6.79-.88-5.14-1.36-10.14-3.75-13.67-7.79-1.75-1.99-3.11-4.3-4.03-6.77-.83-2.21-.98-4.38-1.29-6.63M290.49,526.39c-.15,0-.31.01-.47.04-1.61.25-2.73,1.75-2.51,3.36.05.38.1.75.14,1.12.24,1.96.5,3.99,1.31,6.16,1.06,2.84,2.6,5.43,4.59,7.69,3.55,4.06,8.65,6.99,15.16,8.71,2.47.65,5.01.98,7.56.98,4.03,0,8.01-.86,11.51-2.47,3.46-1.6,6.08-3.69,7.79-6.24,3.06-4.57,2.9-9.86,2.76-14.53-.05-1.61-1.36-2.89-2.97-2.91,0,0-.02,0-.03,0-1.6,0-2.92,1.26-3,2.86-.08,1.63-.38,3.22-.9,4.74-.93,2.74-4.32,5.26-7.08,6.45-2.32.99-4.93,1.5-7.78,1.5-1.66,0-3.37-.17-5.07-.52-9.41-1.89-15.29-6.01-17.47-12.24-.26-.74-.46-1.49-.59-2.23-.26-1.45-1.52-2.48-2.95-2.48h0Z"/>
        </g>
        <path class="cls-6" d="M324.05,515.01l-14.32,7.82s0,.01,0,.02l2.49,2.72-7.87,7.42s0,.03.01.02l14.32-7.53s0-.01,0-.02l-2.45-2.83,7.83-7.61s0-.03-.01-.02Z"/>
        <path class="cls-4" d="M296.98,502.23c.34-.15.71-.25,1.08-.32,2.81.86,7,1.41,11.68,1.41,4.68,0,8.88-.55,11.68-1.41.37.06.74.17,1.08.32,1.95.82,3.16,3.06,2.6,4.94-.76,2.54-4.21,3.08-6.69,3.53-2.85.51-5.78.7-8.68.7s-5.83-.19-8.68-.7c-2.48-.45-5.93-.99-6.69-3.53-.56-1.88.66-4.11,2.6-4.94Z"/>
        <g>
          <path class="cls-3" d="M257.5,459.48c-2.14.66-4.83-.39-6.65-1.64-4.11-2.82-6.91-6.96-9-11.34-1.56-3.27-2.55-6.83-2.51-10.43.02-2.11.41-4.23,1.2-6.2.39-.98.88-1.92,1.47-2.81s1.47-1.59,2.29-2.31c1.34-1.17,2.95-2.09,4.72-2.48s3.69-.2,5.25.68c1.76.99,2.7,2.68,2.93,4.6.21,1.81,0,3.66.39,5.46.27,1.29.84,2.5,1.3,3.73s.82,2.55.66,3.86c-.16,1.31-.9,2.51-1.95,3.34-.52.41-1.12.74-1.77.94-.74.23-1.39.05-2.13-.13-.12.87.23,1.74.75,2.45s1.22,1.28,1.9,1.86c1.75,1.49,3.48,3.1,3.97,5.46.21,1.01.05,2.08-.46,2.98-.61,1.06-1.43,1.68-2.37,1.97Z"/>
          <path class="cls-3" d="M253.72,444.75c-1.23-.34-2.23-1.12-2.75-2.22s-.7-2.33-1.12-3.47c-.43-1.15-1.1-2.21-1.96-3.1"/>
          <path class="cls-4" d="M235.75,420.51c.28-.21.59-.38.91-.51,2.72.33,6.61.09,10.84-.77s7.89-2.17,10.24-3.53c.35,0,.7.03,1.04.11,1.93.45,3.5,2.41,3.4,4.35-.14,2.63-3.14,3.79-5.28,4.68-2.46,1.03-5.06,1.75-7.68,2.28s-5.3.89-7.98.91c-2.33.02-5.56.13-6.78-2.22-.9-1.73-.28-4.15,1.3-5.31Z"/>
        </g>
        <g>
          <path class="cls-3" d="M321.18,459.48c2.14.66,4.83-.39,6.65-1.64,4.11-2.82,6.91-6.96,9-11.34,1.56-3.27,2.55-6.83,2.51-10.43-.02-2.11-.41-4.23-1.2-6.2-.39-.98-.88-1.92-1.47-2.81s-1.47-1.59-2.29-2.31c-1.34-1.17-2.95-2.09-4.72-2.48s-3.69-.2-5.25.68c-1.76.99-2.7,2.68-2.93,4.6-.21,1.81,0,3.66-.39,5.46-.27,1.29-.84,2.5-1.3,3.73s-.82,2.55-.66,3.86c.16,1.31.9,2.51,1.95,3.34.52.41,1.12.74,1.77.94.74.23,1.39.05,2.13-.13.12.87-.23,1.74-.75,2.45s-1.22,1.28-1.9,1.86c-1.75,1.49-3.48,3.1-3.97,5.46-.21,1.01-.05,2.08.46,2.98.61,1.06,1.43,1.68,2.37,1.97Z"/>
          <path class="cls-3" d="M324.96,444.75c1.23-.34,2.23-1.12,2.75-2.22s.7-2.33,1.12-3.47c.43-1.15,1.1-2.21,1.96-3.1"/>
          <path class="cls-4" d="M342.93,420.51c-.28-.21-.59-.38-.91-.51-2.72.33-6.61.09-10.84-.77s-7.89-2.17-10.24-3.53c-.35,0-.7.03-1.04.11-1.93.45-3.5,2.41-3.4,4.35.14,2.63,3.14,3.79,5.28,4.68,2.46,1.03,5.06,1.75,7.68,2.28s5.3.89,7.98.91c2.33.02,5.56.13,6.78-2.22.9-1.73.28-4.15-1.3-5.31Z"/>
        </g>
      </g>
    </g>
  </g>
</svg>